<svg width="84" height="175" viewBox="0 0 84 175" fill="none" xmlns="http://www.w3.org/2000/svg">
<g clip-path="url(#clip0_1_3)">
<path d="M30.9949 16.0852L37.9703 11.9891L30.9949 7.60309L32.884 3.94882L40.0057 8.11395L39.9326 0H44.072L43.9988 8.11395L51.0474 3.94882L53.0096 7.60309L46.0343 11.6992L53.0096 16.0852L51.0474 19.7395L43.9988 15.5744L44.072 23.6147H39.9326L40.0057 15.5744L32.884 19.7395L30.9949 16.0852Z" fill="#EE284F"/>
<path d="M30.9949 72.7955L37.9703 68.6994L30.9949 64.3133L32.884 60.6591L40.0057 64.8242L39.9326 56.7102H44.072L43.9988 64.8242L51.0474 60.6591L53.0096 64.3133L46.0343 68.4094L53.0096 72.7955L51.0474 76.4497L43.9988 72.2846L44.072 80.3249H39.9326L40.0057 72.2846L32.884 76.4497L30.9949 72.7955Z" fill="#EE284F"/>
<path d="M61.4853 72.7955L68.4607 68.6994L61.4853 64.3133L63.3744 60.6591L70.4961 64.8242L70.4229 56.7102H74.5624L74.4892 64.8242L81.5378 60.6591L83.5 64.3133L76.5246 68.4094L83.5 72.7955L81.5378 76.4497L74.4892 72.2846L74.5624 80.3249H70.4229L70.4961 72.2846L63.3744 76.4497L61.4853 72.7955Z" fill="#EE284F"/>
<path d="M0.5 72.7955L7.47537 68.6994L0.5 64.3179L2.38907 60.6637L9.5108 64.8288L9.43762 56.7148H13.5771L13.5039 64.8288L20.5525 60.6637L22.5147 64.3179L15.5393 68.414L22.5147 72.8001L20.5525 76.4543L13.5039 72.2892L13.5771 80.3295H9.43762L9.5108 72.2892L2.38907 76.4543L0.5 72.7955Z" fill="#EE284F"/>
<path d="M16.3901 43.4324L23.3655 39.3363L16.3901 34.9503L18.2792 31.296L25.4009 35.4612L25.3278 27.3472H29.4672L29.394 35.4612L36.4426 31.296L38.4049 34.9503L31.4295 39.0464L38.4049 43.4324L36.4426 47.0867L29.394 42.9216L29.4672 50.9619H25.3278L25.4009 42.9216L18.2792 47.0867L16.3901 43.4324Z" fill="#EE284F"/>
<path d="M45.5952 43.4324L52.5706 39.3363L45.5952 34.9503L47.4843 31.296L54.606 35.4612L54.5328 27.3472H58.6723L58.5991 35.4612L65.6477 31.296L67.6099 34.9503L60.6346 39.0464L67.6099 43.4324L65.6477 47.0867L58.5991 42.9216L58.6723 50.9619H54.5328L54.606 42.9216L47.4843 47.0867L45.5952 43.4324Z" fill="#EE284F"/>
<path fill-rule="evenodd" clip-rule="evenodd" d="M0.5 91.4856V133.243C0.5 156.305 19.0796 175 42 175C64.9204 175 83.5 156.305 83.5 133.243V91.4856H0.5ZM17.5885 103.143H32.4449V111.101H9.68004C9.68004 106.706 13.2203 103.143 17.5885 103.143ZM34.7548 151.915C34.7548 151.915 33.968 150.322 32.2665 149.816C30.9172 149.415 29.1562 149.816 26.8006 151.519C23.8412 153.654 21.5633 154.768 19.8298 155.205C18.1145 155.638 16.7423 155.5 15.6263 155.063C14.4004 154.584 13.4216 153.728 12.6669 152.517C11.9167 151.312 11.3907 149.659 10.9974 147.772L16.7011 146.557C16.971 147.846 17.1082 149.01 17.7623 149.604C17.8309 149.669 17.9316 149.604 18.0551 149.581C18.3478 149.544 18.6725 149.448 19.0385 149.31C20.2048 148.868 21.6274 148.026 23.4021 146.746C27.8526 143.534 31.37 143.428 33.9177 144.187C38.0572 145.416 39.9737 149.3 39.9737 149.3L34.7502 151.915H34.7548ZM42.9514 136.653H33.9497L42.9514 114.277V136.653ZM71.3331 152.651C70.5784 153.861 69.5996 154.717 68.3737 155.196C67.2577 155.633 65.8855 155.771 64.1702 155.339C62.4367 154.902 60.1588 153.788 57.1994 151.652C54.8484 149.954 53.0828 149.554 51.7381 149.949C50.0365 150.456 49.2498 152.048 49.2498 152.048L44.0263 149.434C44.0263 149.434 45.9428 145.55 50.0823 144.321C52.63 143.566 56.1428 143.672 60.5934 146.88C62.3681 148.159 63.7906 148.997 64.957 149.443C65.3229 149.581 65.6431 149.678 65.9404 149.715C66.0639 149.733 66.1645 149.798 66.2331 149.738C66.8918 149.144 67.0244 147.975 67.2988 146.691L73.0026 147.906C72.6047 149.793 72.0833 151.445 71.3331 152.651ZM51.5551 111.105V103.148H66.4115C70.7797 103.148 74.32 106.71 74.32 111.105H51.5505H51.5551Z" fill="#000C3F"/>
</g>
<defs>
<clipPath id="clip0_1_3">
<rect width="83" height="175" fill="white" transform="translate(0.5)"/>
</clipPath>
</defs>
</svg>
